<?xml version="1.0" encoding="UTF-8"?><svg id="Layer_1" xmlns="http://www.w3.org/2000/svg" width="27" height="27" viewBox="0 0 27 27"><path fill="#fffeeb" d="m26.98,9.18s-.01-.07-.02-.1c0-.02-.01-.04-.02-.06,0-.03-.02-.06-.03-.08,0-.02-.02-.04-.03-.06-.01-.03-.03-.05-.04-.08-.01-.02-.02-.04-.03-.05-.03-.04-.06-.08-.09-.12-.02-.02-.04-.04-.06-.06-.02-.02-.03-.03-.05-.05-.02-.02-.04-.04-.07-.05-.02-.01-.03-.03-.05-.04,0,0-.01-.01-.02-.01L14.14.19c-.39-.26-.9-.26-1.29,0L.52,8.42s-.01,0-.02.01c-.02.01-.04.03-.05.04-.02.02-.04.04-.07.05-.02.01-.03.03-.05.05-.02.02-.04.04-.06.06-.01.02-.03.03-.04.05-.02.02-.03.05-.05.07-.01.02-.02.04-.03.05-.01.02-.03.05-.04.08,0,.02-.02.04-.03.06-.01.03-.02.06-.03.08,0,.02-.01.04-.02.05,0,.03-.01.06-.02.1,0,.02,0,.03,0,.05,0,.05-.01.1-.01.15v8.23c0,.05,0,.1.01.15,0,.02,0,.03.01.05,0,.03.01.07.02.1,0,.02.01.04.02.06,0,.03.02.06.03.08,0,.02.02.04.03.05.01.03.03.05.04.08.01.02.02.04.03.05.02.03.03.05.05.07.01.02.03.03.04.05.02.02.04.04.06.06.01.01.03.03.05.04.02.02.04.04.07.06.02.01.04.03.05.04,0,0,.01.01.02.01l12.34,8.23c.19.13.41.2.64.2.23,0,.45-.07.64-.2l12.34-8.23s.01,0,.02-.01c.02-.01.04-.03.05-.04.02-.02.04-.04.07-.06.02-.01.03-.03.05-.05.04-.04.07-.07.1-.11.02-.02.03-.05.05-.07.01-.02.02-.04.03-.05.01-.03.03-.05.04-.08,0-.02.02-.04.03-.06.01-.03.02-.06.03-.08,0-.02.01-.04.02-.06,0-.03.01-.06.02-.1,0-.02,0-.03,0-.05,0-.05.01-.1.01-.15v-8.23c0-.05,0-.1-.01-.15,0-.02,0-.03-.01-.05h0Zm-13.48,7.06l-4.1-2.74,4.1-2.74,4.1,2.74-4.1,2.74Zm-1.16-7.5l-5.03,3.36-4.06-2.72L12.34,3.33v5.41h0Zm-7.12,4.76l-2.9,1.94v-3.88l2.9,1.94Zm2.09,1.4l5.03,3.36v5.41l-9.1-6.06,4.06-2.72h0s0,0,0,0Zm7.35,3.36l5.03-3.36,4.06,2.72-9.09,6.06v-5.41h0Zm7.12-4.76l2.91-1.94v3.88l-2.91-1.94h0s0,0,0,0Zm-2.09-1.39l-5.03-3.36V3.32l9.09,6.06-4.06,2.72h0Z"/></svg>