<?xml version="1.0" encoding="UTF-8"?><svg id="Layer_1" xmlns="http://www.w3.org/2000/svg" width="27" height="27" viewBox="0 0 27 27"><path fill="#fffeeb" d="m0,13.5c0-2.45.6-4.71,1.81-6.78,1.21-2.07,2.84-3.71,4.91-4.91,2.07-1.21,4.33-1.81,6.78-1.81s4.71.6,6.78,1.81c2.07,1.21,3.71,2.84,4.91,4.91,1.21,2.07,1.81,4.33,1.81,6.78s-.6,4.71-1.81,6.78c-1.21,2.07-2.84,3.71-4.91,4.91-2.07,1.21-4.33,1.81-6.78,1.81s-4.71-.6-6.78-1.81c-2.07-1.21-3.71-2.84-4.91-4.91-1.21-2.07-1.81-4.33-1.81-6.78Zm2.24,0c0,2.81.94,5.28,2.84,7.43.86-1.69,2.23-3.3,4.1-4.83,1.87-1.53,3.7-2.49,5.48-2.89-.27-.63-.53-1.2-.78-1.7-3.1.99-6.44,1.48-10.04,1.48-.7,0-1.22,0-1.57-.03,0,.07,0,.16-.01.27,0,.11-.01.2-.01.27Zm.35-2.78c.4.04.98.05,1.75.05,3.01,0,5.86-.4,8.56-1.22-1.37-2.43-2.87-4.45-4.51-6.07-1.42.72-2.64,1.72-3.66,3-1.02,1.28-1.73,2.69-2.15,4.24Zm4.02,11.66c2.03,1.58,4.33,2.38,6.89,2.38,1.33,0,2.66-.25,3.97-.76-.36-3.08-1.06-6.06-2.11-8.94-1.66.36-3.33,1.27-5.01,2.73-1.68,1.46-2.93,2.99-3.74,4.59ZM10.75,2.62c1.58,1.64,3.05,3.68,4.4,6.13,2.45-1.03,4.29-2.33,5.53-3.91-2.09-1.73-4.48-2.59-7.18-2.59-.92,0-1.84.13-2.75.38Zm5.37,8.05c.27.58.58,1.3.92,2.19,1.33-.13,2.78-.19,4.35-.19,1.12,0,2.22.03,3.32.08-.14-2.45-1.03-4.63-2.65-6.53-1.17,1.75-3.15,3.23-5.94,4.45Zm1.59,4.08c.92,2.66,1.54,5.4,1.86,8.21,1.42-.92,2.58-2.1,3.48-3.54.9-1.44,1.44-3,1.62-4.67-1.31-.09-2.51-.14-3.59-.14-.99,0-2.11.05-3.38.14Z"/></svg>