<svg xmlns="http://www.w3.org/2000/svg" width="29.273" height="23" viewBox="0 0 29.273 23"><g transform="translate(-1.5 -3.75)"><path d="M1.5,8.67V20.63a4.182,4.182,0,0,0,4.182,4.182H26.591a4.182,4.182,0,0,0,4.182-4.182V8.67L18.328,16.327a4.182,4.182,0,0,1-4.383,0Z" transform="translate(0 1.938)" fill="#fffeeb"/><path d="M30.773,8.152v-.22A4.182,4.182,0,0,0,26.591,3.75H5.682A4.182,4.182,0,0,0,1.5,7.932v.22l13.541,8.333a2.091,2.091,0,0,0,2.191,0Z" transform="translate(0 0)" fill="#fffeeb"/></g></svg>