<svg xmlns="http://www.w3.org/2000/svg" xmlns:xlink="http://www.w3.org/1999/xlink" width="83" height="104" viewBox="0 0 83 104"><defs><clipPath id="a"><rect width="83" height="104" fill="#fff" stroke="#707070" stroke-width="1"/></clipPath><clipPath id="b"><rect width="30.058" height="120.525" fill="none"/></clipPath><clipPath id="c"><rect width="22.499" height="114.313" fill="none"/></clipPath></defs><g clip-path="url(#a)"><g transform="translate(12.752 12.641)"><g transform="translate(27.326)"><g clip-path="url(#b)"><path d="M8.847,124.926C12.793,103.173,15.6,57.709,14.9,49.305c-.8-9.614.443-20.993.194-22.722a.943.943,0,0,1,1.868-.268,39.313,39.313,0,0,1-.113,5.118,138.4,138.4,0,0,0-.069,17.716c.706,8.476-2.106,54.247-6.072,76.113a.944.944,0,0,1-1.857-.336" transform="translate(-1.906 -5.508)" fill="#96d2e7"/><path d="M16.645,22.064c-2.3-3.411-2.741-7.661-3.171-11.772l.533-.056.042.042-.042-.042s-.387-.419-.387-.419a.638.638,0,0,1,.692-.183.629.629,0,0,1,.413.526c.376,3.6.764,7.316,2.431,10.329,1.836-3.422,4.193-10.81,3.071-15.576a.629.629,0,0,1,1.225-.288c1.329,5.65-1.741,14.351-3.76,17.431a.629.629,0,0,1-1.048.006" transform="translate(-2.909 -0.895)" fill="#96d2e7"/><path d="M16.25,24.9c-2.255-1.271-3.924-3.338-6.211-6.346a.629.629,0,1,1,1-.761c2.06,2.708,3.588,4.615,5.46,5.792,2.087-1.668,4.372-2.512,5.988-4.621a.629.629,0,0,1,1,.765c-1.876,2.447-4.436,3.315-6.518,5.1a.753.753,0,0,1-.718.071" transform="translate(-2.139 -3.788)" fill="#96d2e7"/><path d="M15.662,51.967c-2.4-.866-4.638-5.294-5.871-6.681a.629.629,0,0,1,.939-.836c1.24,1.395,3.475,5.653,5.359,6.335a.629.629,0,0,1-.428,1.182" transform="translate(-2.078 -9.549)" fill="#96d2e7"/><path d="M10.336,53.6a.629.629,0,0,1,.653-1.075c2.13,1.3,4.16.1,4.331-.463a.629.629,0,0,1,1.211.34,3.052,3.052,0,0,1-1.854,1.658,4.812,4.812,0,0,1-4.342-.459" transform="translate(-2.165 -11.143)" fill="#96d2e7"/><path d="M16.889,50.805a.629.629,0,0,1,.22-.862c4.221-2.509,6.022-5.345,6.022-9.482a.629.629,0,0,1,1.258,0c0,4.577-2.047,7.835-6.638,10.564a.629.629,0,0,1-.862-.22" transform="translate(-3.627 -8.6)" fill="#96d2e7"/><path d="M17.282,52.956a.629.629,0,0,1,.191-1.243c10.247,1.569,10.081-4.827,11.658-3.758a.628.628,0,0,1,.169.873c-2.8,4.146-7.054,4.891-12.019,4.128" transform="translate(-3.617 -10.326)" fill="#96d2e7"/><path d="M15.758,73.943C9.655,70.3,7.395,66.193,7.3,66.02a.629.629,0,0,1,1.106-.6c.031.056,2.225,4,7.994,7.439a.629.629,0,0,1-.645,1.081" transform="translate(-1.558 -14.052)" fill="#96d2e7"/><path d="M3.783,75.271a.629.629,0,0,1,.134-1.251C8.8,74.543,7.365,74,12.5,74a12.406,12.406,0,0,0,2.547-.23,11.778,11.778,0,0,0,5.109-3.525.629.629,0,0,1,.963.81,13.076,13.076,0,0,1-5.77,3.936c-2.105.452-3.191.107-6.663.427a27.824,27.824,0,0,1-4.906-.147" transform="translate(-0.696 -15.115)" fill="#96d2e7"/><path d="M23.607,77.464a8.427,8.427,0,0,1-5.924-1.9A.629.629,0,0,1,18.5,74.6a7.278,7.278,0,0,0,5.109,1.6c4.3,0,4.348-.935,7.156-2.976a.629.629,0,0,1,.739,1.017c-.535.39-.979.749-1.372,1.066-1.661,1.341-2.664,2.151-6.523,2.151" transform="translate(-3.768 -15.781)" fill="#96d2e7"/><path d="M10.193,4.744c-2.018.93-2.05,4.688.024,6.173a2.688,2.688,0,0,0,.956.43,3.249,3.249,0,0,0,2.716-.068,3.433,3.433,0,0,0,1.768-2.759c.207-2.7-3.483-4.689-5.464-3.776" transform="translate(-1.872 -0.976)" fill="#fbd1e2"/><path d="M19.658,1.261c-1.443,2.107-1.1,5.2,1.464,5.316a2.974,2.974,0,0,0,3.685-2.782c.735-3.116-3.264-5.287-5.149-2.533" transform="translate(-4.061 0)" fill="#fbd1e2"/><path d="M28.19,14.679a2.6,2.6,0,0,0-2.91,1,2.792,2.792,0,0,0,2.663,4.862c2.768-1.059,2.543-5.036.247-5.864" transform="translate(-5.204 -3.142)" fill="#fbd1e2"/><path d="M8.421,14.962c-2.7.51-3.26,5.3-.2,5.45a2.683,2.683,0,0,0,3.272-2.337c.129-.868-1.371-3.434-3.071-3.113" transform="translate(-1.328 -3.224)" fill="#fbd1e2"/><path d="M24.529,37.305a3.706,3.706,0,0,0-1.6,4.093,2.578,2.578,0,0,0,2.031,2.043,2.736,2.736,0,0,0,2.419-.689c2.592-2.352-.369-6.629-2.849-5.446" transform="translate(-4.917 -8.01)" fill="#fbd1e2"/><path d="M31.252,45.678a2.75,2.75,0,0,0-2.617,1.869A3.342,3.342,0,0,0,30.4,51.863c1.766.648,3.589-.933,4.091-2.555a2.844,2.844,0,0,0-3.238-3.63" transform="translate(-6.132 -9.85)" fill="#fbd1e2"/><path d="M8.619,39.444c-3.078.6-3.691,5.118-.635,5.893a2.936,2.936,0,0,0,1.455-.012,2.952,2.952,0,0,0,1.94-.757,3,3,0,0,0-2.759-5.124" transform="translate(-1.29 -8.501)" fill="#fbd1e2"/><path d="M14.291,51.15a2.737,2.737,0,0,0-3.578-1.538,3.322,3.322,0,0,0-1.923,3.72c.354,1.689,2.462,2.129,3.863,1.538a2.97,2.97,0,0,0,1.638-3.72" transform="translate(-1.883 -10.665)" fill="#fbd1e2"/><path d="M7.782,60.509a3.692,3.692,0,0,0-4.665,2.838,3.209,3.209,0,0,0,3.325,3.768,2.863,2.863,0,0,0,2.3-1.434c1.5-1.468,1.121-4.455-.958-5.172" transform="translate(-0.665 -13.026)" fill="#fbd1e2"/><path d="M2.138,72.391A3.116,3.116,0,0,0,.1,74.479a2.983,2.983,0,0,0,3.376,3.627A3.7,3.7,0,0,0,6.05,76.242a2.879,2.879,0,0,0-3.912-3.852" transform="translate(0 -15.552)" fill="#fbd1e2"/><path d="M23.724,65.261a2.8,2.8,0,0,0-1.019,5,3.186,3.186,0,0,0,4.657-.906,2.882,2.882,0,0,0-3.638-4.095" transform="translate(-4.653 -14.03)" fill="#fbd1e2"/><path d="M33.372,70.254a3.172,3.172,0,0,0-2.453,4.434c.468,2.274,3.55,2.708,5.174,1.088,1.29-1.288.431-5.9-2.72-5.522" transform="translate(-6.611 -15.162)" fill="#fbd1e2"/><path d="M10.328,16.977a.318.318,0,0,0-.113.43,1.494,1.494,0,0,1,.1.158.776.776,0,0,1,.068.152,1.619,1.619,0,0,1,.066.261,1.757,1.757,0,0,1,.009.27c0,.03-.005.085-.01.114a1.6,1.6,0,0,1-.055.231c-.008.026-.024.074-.038.106a1.545,1.545,0,0,1-.116.212.691.691,0,0,1-.095.12,1.219,1.219,0,0,1-.181.162,1.43,1.43,0,0,1-.185.108,1.241,1.241,0,0,1-.227.082,1.278,1.278,0,0,1-.235.042,1.8,1.8,0,0,1-.216,0,1.3,1.3,0,0,1-.279-.05c-.049-.014-.091-.029-.135-.046a1.7,1.7,0,0,1-.231-.133.314.314,0,0,0-.318.543,1.892,1.892,0,0,0,2.951-1.555c0-.385-.307-1.474-.76-1.209" transform="translate(-1.723 -3.656)" fill="#f8a5c5"/><path d="M14.165,10.772a1.455,1.455,0,0,1-2.452-.145.315.315,0,0,0-.543.318,2.08,2.08,0,0,0,3.538.145.315.315,0,0,0-.543-.318" transform="translate(-2.402 -2.261)" fill="#f8a5c5"/><path d="M14.8,7.455a1.028,1.028,0,0,0-.331-.319.37.37,0,0,0-.409-.045.317.317,0,0,0-.113.43.308.308,0,0,0,.122.117.472.472,0,0,1,.182.136.461.461,0,0,1,.084.2.344.344,0,0,0,.093.249.316.316,0,0,0,.445,0A.324.324,0,0,0,14.969,8a1.007,1.007,0,0,0-.166-.547" transform="translate(-3.002 -1.521)" fill="#f8a5c5"/><path d="M21.13,4a.317.317,0,0,0-.113-.43c-.34-.18-.561.209-.6.591-.066.734.594.8.681.42.038-.167-.061-.214-.049-.4A.469.469,0,0,1,21.13,4" transform="translate(-4.408 -0.761)" fill="#f8a5c5"/><path d="M23.554,3.72a.323.323,0,0,0-.113.43A1.513,1.513,0,0,1,21.4,6.093a.315.315,0,0,0-.318.543,2.128,2.128,0,0,0,3.076-1.681c.064-.521-.111-1.526-.607-1.236" transform="translate(-4.518 -0.792)" fill="#f8a5c5"/><path d="M25.964,18.727a.314.314,0,0,0-.606-.167c-.22.754.345,1.589.7,1.2a.317.317,0,0,0,.092-.223c-.009-.207-.308-.4-.19-.808" transform="translate(-5.464 -3.958)" fill="#f8a5c5"/><path d="M28.341,20.064c.021-.011.039-.026,0,0" transform="translate(-6.118 -4.328)" fill="#f8a5c5"/><path d="M28.983,18.572c0,.019,0,.063-.009.085-.035.194-.123.388-.073.269a.211.211,0,0,1-.027.057,1.522,1.522,0,0,1-.183.292,2.045,2.045,0,0,1-.245.237c.049-.037.036-.027,0,0a1.365,1.365,0,0,1-.286.163,1.083,1.083,0,0,1-.152.052c-.114.031-.124.025-.155.035-.546.038-.41.656-.054.631a1.983,1.983,0,0,0,1.818-1.824.314.314,0,0,0-.629,0" transform="translate(-5.933 -3.942)" fill="#f8a5c5"/><path d="M29.051,19.515c-.012.012-.009.009,0,0" transform="translate(-6.27 -4.213)" fill="#f8a5c5"/><path d="M24.556,40.692a.408.408,0,1,1,.059-.179A.317.317,0,0,0,24.3,40.2c-.2.009-.305.161-.386.345a1.183,1.183,0,0,0-.1.6.987.987,0,0,0,.1.365.318.318,0,0,0,.43.113.313.313,0,0,0,.156-.272.3.3,0,0,0-.036-.141c.04.1.006.033-.021-.107a.868.868,0,0,1,0-.143.6.6,0,0,1,.114-.266" transform="translate(-5.139 -8.678)" fill="#f8a5c5"/><path d="M27.853,40.819a.318.318,0,0,0-.387-.22.332.332,0,0,0-.209.441,1.621,1.621,0,0,1,.008.283.9.9,0,0,1-.019.15,1.855,1.855,0,0,1-.078.271c0,.009-.013.031-.017.041a1.68,1.68,0,0,1-.14.245,1.33,1.33,0,0,1-.164.187c-.033.031-.063.057-.1.084a1.661,1.661,0,0,1-.275.162l-.02.011s-.125.045-.206.065a1.49,1.49,0,0,1-.148.031,1.557,1.557,0,0,1-.358,0,1.175,1.175,0,0,1-.181-.037.315.315,0,0,0-.167.607,1.976,1.976,0,0,0,2.457-2.325" transform="translate(-5.434 -8.763)" fill="#f8a5c5"/><path d="M30.166,48.976c-.071.092.064-.048.064-.185a.315.315,0,0,0-.314-.314c-.272.013-.43.384-.474.57-.052.223-.065.609.147.734a.316.316,0,0,0,.463-.355.593.593,0,0,1-.005-.175.766.766,0,0,1,.119-.274" transform="translate(-6.349 -10.465)" fill="#f8a5c5"/><path d="M32.935,50.682a1.227,1.227,0,0,1-2.119.457.318.318,0,0,0-.445,0c-.452.452.837,1.248,1.825,1.012a1.9,1.9,0,0,0,1.345-1.3.315.315,0,0,0-.606-.167" transform="translate(-6.537 -10.894)" fill="#f8a5c5"/><path d="M7.972,43.66a.289.289,0,0,1,.065-.223.314.314,0,0,0-.445-.445c-.508.5-.158,1.371.243,1.371a.316.316,0,0,0,.314-.314c-.008-.176-.14-.209-.178-.39" transform="translate(-1.584 -9.261)" fill="#f8a5c5"/><path d="M11.243,43.476c0,.027,0,.091-.009.118a1.335,1.335,0,0,1-.685.988c-.041.021-.068.035-.1.049a1.809,1.809,0,0,1-.283.082,1.267,1.267,0,0,1-.71-.064.314.314,0,0,0-.167.606,1.946,1.946,0,0,0,2.583-1.78c.007-.17-.61-.446-.629,0" transform="translate(-1.956 -9.334)" fill="#f8a5c5"/><path d="M10.931,53.97c-.445-.508-.434-.514-.518-.542a.312.312,0,0,0-.424.371c.026.092.02.07.5.616a.324.324,0,0,0,.222.093.316.316,0,0,0,.314-.314.367.367,0,0,0-.092-.223" transform="translate(-2.154 -11.528)" fill="#f8a5c5"/><path d="M13.688,52.487a.319.319,0,0,0-.22.387,1.379,1.379,0,0,1,.035.136c0,.017.01.065.012.082a1.339,1.339,0,0,1,0,.224,2.279,2.279,0,0,1-.076.287c-.016.031-.027.053-.045.085-.029.053-.057.093-.078.124l-.045.052a1.375,1.375,0,0,1-.143.134,1.34,1.34,0,0,1-.212.123l-.046.02a1.374,1.374,0,0,1-.189.053.545.545,0,0,1-.085.01.314.314,0,0,0,0,.629,1.689,1.689,0,0,0,1.253-.688c.434-.59.4-1.837-.158-1.657" transform="translate(-2.651 -11.327)" fill="#f8a5c5"/><path d="M5.5,65.779a1.273,1.273,0,0,1-.065-.245c-.008-.043,0-.034,0-.016a1.091,1.091,0,0,1-.008-.176,1.059,1.059,0,0,1,.009-.122,1.3,1.3,0,0,1,.042-.178,1.221,1.221,0,0,1,.044-.116,1.326,1.326,0,0,1,.1-.168.317.317,0,0,0-.113-.43c-.575-.3-.965,1.112-.467,1.927a.314.314,0,0,0,.543-.318c-.016-.027-.07-.146-.082-.158" transform="translate(-1.04 -13.878)" fill="#f8a5c5"/><path d="M5.61,65.873a.052.052,0,0,0,0-.016v.016" transform="translate(-1.211 -14.217)" fill="#f8a5c5"/><path d="M9.26,62.809a.315.315,0,0,0-.543.318A1.964,1.964,0,0,1,7.334,66.08a.317.317,0,0,0-.22.387c.165.6,1.7-.1,2.23-1.15a2.651,2.651,0,0,0-.085-2.508" transform="translate(-1.534 -13.527)" fill="#f8a5c5"/><path d="M2.524,77.258a.573.573,0,0,1-.227-.1c-.229-.2-.227-.495-.2-.314a.314.314,0,0,0-.627,0,1.139,1.139,0,0,0,.89,1.017.314.314,0,0,0,.387-.22c.019-.08-.092-.362-.22-.387" transform="translate(-0.316 -16.522)" fill="#f8a5c5"/><path d="M5.921,74.044a.317.317,0,0,0-.43-.113.324.324,0,0,0-.113.43,1.915,1.915,0,0,1-.917,2.453.314.314,0,0,0,.318.543,2.52,2.52,0,0,0,1.142-3.313" transform="translate(-0.929 -15.952)" fill="#f8a5c5"/><path d="M23.438,69.05c.067.1-.022-.016-.1-.2a.982.982,0,0,1-.051-.413.317.317,0,0,0-.3-.326c-.538,0-.351.9-.02,1.356a.316.316,0,0,0,.445.023.347.347,0,0,0,.024-.441" transform="translate(-4.89 -14.704)" fill="#f8a5c5"/><path d="M26.328,70.362c-.018.026-.036.052-.058.078l.018-.021a.79.79,0,0,1-.174.156l.031-.021a1.045,1.045,0,0,1-1.026.105,1.629,1.629,0,0,1-.183-.125c-.281-.226-.71.231-.343.528a1.618,1.618,0,0,0,2.261-.356.315.315,0,0,0-.528-.343" transform="translate(-5.279 -15.159)" fill="#f8a5c5"/><path d="M32.607,73.021a.315.315,0,0,0-.528-.343,1.91,1.91,0,0,0-.329,1.009.315.315,0,0,0,.629.024,1.53,1.53,0,0,1,.228-.691" transform="translate(-6.854 -15.659)" fill="#f8a5c5"/><path d="M36.245,74.662a.317.317,0,0,0-.4.2,1.556,1.556,0,0,1-2.73.791c-.267-.306-.732.116-.467.421a2.22,2.22,0,0,0,2.283.668c1.284-.408,1.846-1.914,1.308-2.085" transform="translate(-7.032 -16.116)" fill="#f8a5c5"/><path d="M16.1,100.673c4.027-3.98,8.375-8.4,9.023-14.324a.317.317,0,0,0-.443-.321,14.5,14.5,0,0,0-5.253,3.838c-1.741,2.314-2.306,5.224-3.5,9.893a.346.346,0,0,0,.012.189l-.242.239c-.285.282.111.771.4.485" transform="translate(-3.368 -18.565)" fill="#96d2e7"/><path d="M1.693,85.772c-.78,2.352.18,4.727.929,6.949,1.041,3.089.867,4.15.071,7.245-1.375,5.337-.135,8.5,2.421,14.056,1,2.18,2.326,4.612,4.88,5.169a.307.307,0,0,0,.354-.165c1.447-.643-4.033-1.194-3.043-13.107.794-9.546,1.7-13.432-5.087-20.286a.318.318,0,0,0-.525.139" transform="translate(-0.303 -18.467)" fill="#96d2e7"/><path d="M21.268,92.55l.931-1.2a.315.315,0,0,0-.51-.369l-.931,1.2a.318.318,0,0,0,.071.439.321.321,0,0,0,.439-.071" transform="translate(-4.469 -19.614)" fill="#2db5eb"/><path d="M21.255,94.939a14,14,0,0,0,3.394-6.47c.089-.394-.537-.459-.625-.068a13.42,13.42,0,0,1-3.278,6.169c-.275.3.237.661.51.369" transform="translate(-4.462 -19.028)" fill="#2db5eb"/><path d="M19.671,99.081c.067-.056.049-.038.4-.742a.315.315,0,0,0-.587-.227c-.308.622-.332.637-.321.733a.307.307,0,0,0,.2.285.465.465,0,0,0,.314-.05" transform="translate(-4.136 -21.138)" fill="#2db5eb"/><path d="M5.019,106.7a14.025,14.025,0,0,0,.757,9.752c.169.367.712.048.543-.318a13.354,13.354,0,0,1-.695-9.267.315.315,0,0,0-.606-.167" transform="translate(-0.966 -22.987)" fill="#2db5eb"/><path d="M5.657,102.786c-.006.1-.012.19-.008.1a2.351,2.351,0,0,1-.153.564,2.809,2.809,0,0,1-.187.339.317.317,0,0,0,.113.43c.539.285.877-1.01.868-1.623a.318.318,0,0,0-.314-.314c-.36.016-.311.383-.318.5" transform="translate(-1.137 -22.081)" fill="#2db5eb"/><path d="M3.756,92.944A18.24,18.24,0,0,1,5.068,97.3c.068.4.674.23.607-.167a18.856,18.856,0,0,0-1.376-4.5c-.146-.327-.737-.119-.543.318" transform="translate(-0.803 -19.962)" fill="#2db5eb"/><path d="M3.194,89.185a9.687,9.687,0,0,1,2.995,5.068c.09.394.7.227.606-.167A10.257,10.257,0,0,0,3.639,88.74c-.3-.269-.747.174-.445.445" transform="translate(-0.668 -19.139)" fill="#2db5eb"/><path d="M12.348,135.189a2.693,2.693,0,0,0,.977-1.342.256.256,0,0,0-.028-.2c1.048-1.967,2.109-3.932,3.348-5.787,2.25-3.366,5.225-6.569,6.459-10.579,1.389-4.514.17-9.69,2.849-13.74.162-.244-.151-.511-.386-.436a7.317,7.317,0,0,0-4.684,4.6c-.807,2.4-.355,4.188-1.667,7.441-1.709,4.24-4.886,7.765-6.2,12.184a20.161,20.161,0,0,0-.619,3.875,7.164,7.164,0,0,1-1.135,3.783.325.325,0,0,0,.378.5c.265.181.46-.064.7-.3" transform="translate(-2.417 -22.257)" fill="#96d2e7"/><path d="M17.753,127.664a15.553,15.553,0,0,0-5.353,8.46c-.093.392.506.583.6.19a15,15,0,0,1,5.181-8.189c.316-.254-.113-.714-.427-.461" transform="translate(-2.675 -27.545)" fill="#2db5eb"/><path d="M21.384,123.283c-.6.456-1.525,1.913-.893,2.082a.318.318,0,0,0,.394-.2,2.766,2.766,0,0,1,.142-.43,2.567,2.567,0,0,1,.439-.674,2.769,2.769,0,0,1,.345-.312c.3-.231-.064-.739-.427-.461" transform="translate(-4.378 -26.597)" fill="#2db5eb"/></g></g><g transform="translate(0 6.212)"><g transform="translate(0 0)" clip-path="url(#c)"><path d="M10.85,25.785c-2.034-1.917-3.772-4.248-5.784-6.051a.943.943,0,0,1,1.259-1.406,41.729,41.729,0,0,1,3.183,3.3c.555.619,1.122,1.252,1.706,1.859C16.1,12.823,14.2,9.146,16.249,9.436a.943.943,0,0,1,.8,1.067,49.65,49.65,0,0,1-4.7,15.006.944.944,0,0,1-1.5.275" transform="translate(0.836 1.661)" fill="#7d9be8"/><path d="M6.322,77.165A.943.943,0,0,1,7.86,76.072c1.448,2.035,3.225,5.265,4.68,7.591,2.924-3.531,5.257-6.484,7.047-11.02a.943.943,0,0,1,1.755.693c-2.026,5.132-4.726,8.369-8.171,12.521-1.46,1.761-3.251-3.629-6.85-8.692" transform="translate(1.081 12.702)" fill="#7d9be8"/><path d="M11.776,40.947C10.03,39.9,13.648,37.8,16.643,29.214c.5-1.448,1.368-3.931,2.627-3.08a.944.944,0,0,1,.253,1.31,8.953,8.953,0,0,0-1.1,2.39c-.622,1.784-1.562,4.481-5.353,10.79a.943.943,0,0,1-1.294.322" transform="translate(1.996 4.577)" fill="#7d9be8"/><path d="M13.141,44.566c-2.76-5.772-5.669-6.933-10.568-13.543A.944.944,0,0,1,4.089,29.9c4.793,6.468,7.847,7.772,10.754,13.852a.943.943,0,1,1-1.7.814" transform="translate(0.418 5.202)" fill="#7d9be8"/><path d="M8.031,11.635C5.592,9.936,2.688,9.127.289,6.726A.944.944,0,0,1,1.625,5.392C4.768,8.539,10.643,9.534,9.343,11.4a.942.942,0,0,1-1.313.235" transform="translate(0 0.9)" fill="#7d9be8"/><path d="M12.268,62.6C10.556,56.97,7.306,52.872,3.657,47.08a.943.943,0,0,1,1.6-1.006c3.675,5.833,7.014,10.041,8.82,15.972a.943.943,0,0,1-1.8.549" transform="translate(0.617 8.044)" fill="#7d9be8"/><path d="M12.129,65.252A33.689,33.689,0,0,1,4.183,53.48a.943.943,0,0,1,1.777-.633A31.714,31.714,0,0,0,13.446,63.9a.943.943,0,1,1-1.316,1.352" transform="translate(0.726 9.206)" fill="#7d9be8"/><path d="M11.573,54.971c4.392-4.248,6.3-12.178,7.312-13.095a.943.943,0,0,1,1.322,1.343c-.608.949-2.988,8.916-7.322,13.108-.375.362-2.208-.489-1.312-1.356" transform="translate(1.997 7.34)" fill="#7d9be8"/><path d="M11.573,63.8c4.392-4.248,6.3-12.178,7.312-13.095a.943.943,0,0,1,1.322,1.343c-.608.949-2.988,8.916-7.322,13.108-.375.362-2.208-.489-1.312-1.356" transform="translate(1.997 8.893)" fill="#7d9be8"/><path d="M8.858,11.138a.485.485,0,0,1-.934.075.426.426,0,0,1-.431-.162C5.139,7.867,2.722,4.516,2.07.515c-.351-2.151,8.249,2.625,6.788,10.623" transform="translate(0.363 0)" fill="#7d9be8"/><path d="M.672,10.849c1.225,5.079,5.92,7.913,10.451,9.723a.445.445,0,0,0,.618-.465.467.467,0,0,0,.065-.1C14.187,14.307,16.657,8.125,15.2,1.85,14.7-.272,10.135,5.909,10.57,17.706a.409.409,0,0,0-.122-.136c-2.181-3.435-5.09-6.485-9.259-7.266a.474.474,0,0,0-.516.545" transform="translate(0.117 0.254)" fill="#7d9be8"/><path d="M1.747,20.968a23.628,23.628,0,0,0,11.6,13.266.5.5,0,0,0,.852.181,22.374,22.374,0,0,0,5.245-13.07c.04-.679.342-2.2-.587-2.429-.888-.219-1.614,1.15-2.021,1.734a19.616,19.616,0,0,0-3.492,11.443c-2.462-4.9-5.514-9.971-10.993-11.757a.478.478,0,0,0-.6.632" transform="translate(0.302 3.331)" fill="#7d9be8"/><path d="M4.12,61.8a23.631,23.631,0,0,0,8.613,15.374.5.5,0,0,0,.8.352,22.38,22.38,0,0,0,7.829-11.707c.179-.655.788-2.082-.074-2.5-.825-.4-1.817.793-2.336,1.28a19.61,19.61,0,0,0-5.777,10.476c-1.4-5.3-3.338-10.895-8.331-13.772a.478.478,0,0,0-.721.494" transform="translate(0.725 10.795)" fill="#7d9be8"/><path d="M.181,35.961a24.2,24.2,0,0,0,4.805,9.556C10.412,52.092,15.6,52.17,14.8,50.852l-.018-.028A33.607,33.607,0,0,0,21.8,33.591a.476.476,0,0,0-.848-.331A26.787,26.787,0,0,0,13.9,49.551a.516.516,0,0,0,.014.151A24.421,24.421,0,0,0,.819,35.446a.475.475,0,0,0-.639.515" transform="translate(0.03 5.834)" fill="#7d9be8"/><path d="M9.542,112.191c7.19-71.643-2.276-97.423-2.634-105.02a.943.943,0,0,1,1.884-.089,53.837,53.837,0,0,0,.955,6.085c2.268,12.076,7.579,40.355,1.672,99.213a.943.943,0,0,1-1.877-.188" transform="translate(1.218 1.091)" fill="#40629d"/></g></g></g></g></svg>