<svg xmlns="http://www.w3.org/2000/svg" xmlns:xlink="http://www.w3.org/1999/xlink" width="17.726" height="21.523" viewBox="0 0 17.726 21.523">
  <defs>
    <clipPath id="clip-path">
      <rect id="Rectangle_47" data-name="Rectangle 47" width="18.502" height="12.376" fill="#7daec7"/>
    </clipPath>
  </defs>
  <g id="Group_5611" data-name="Group 5611" transform="translate(11.702) rotate(71)">
    <g id="Group_43" data-name="Group 43" transform="translate(0 0)" clip-path="url(#clip-path)">
      <path id="Path_3169" data-name="Path 3169" d="M18.187,22.885a38.178,38.178,0,0,1-2.123-3.872,1.329,1.329,0,0,1,2.394-1.152c.472.98.94,1.867,1.417,2.686,1.938-.673,3.925-1.1,5.8-1.6a1.329,1.329,0,0,1,.677,2.57,55.007,55.007,0,0,0-6.543,1.891,1.329,1.329,0,0,1-1.619-.523" transform="translate(-10.629 -11.421)" fill="#7daec7"/>
      <path id="Path_3170" data-name="Path 3170" d="M17.109,24.868A54.969,54.969,0,0,1,.85,21.29a1.329,1.329,0,0,1,.961-2.477,52.183,52.183,0,0,0,15.427,3.4,1.329,1.329,0,1,1-.129,2.654" transform="translate(0 -12.493)" fill="#7daec7"/>
      <path id="Path_3171" data-name="Path 3171" d="M20.28,8.747c-.512-2.1-.9-4.414-1.276-6.571a1.329,1.329,0,0,1,2.619-.453c.221,1.276.451,2.622.7,3.876.975-1.577,1.953-3.2,2.756-4.847a1.329,1.329,0,0,1,2.389,1.163C26.2,4.523,24.571,6.972,23.192,9.242a1.708,1.708,0,0,1-2.912-.5" transform="translate(-12.674 0)" fill="#7daec7"/>
    </g>
  </g>
</svg>
