<svg xmlns="http://www.w3.org/2000/svg" width="27.539" height="26.858" viewBox="0 0 27.539 26.858"><path d="M13.77,6.321A13.771,13.771,0,0,0,9.416,33.156c.688.127.941-.3.941-.662,0-.328-.013-1.413-.019-2.564C6.508,30.763,5.7,28.306,5.7,28.306a3.645,3.645,0,0,0-1.529-2.015c-1.249-.855.094-.837.094-.837a2.894,2.894,0,0,1,2.111,1.419,2.932,2.932,0,0,0,4.007,1.145,2.93,2.93,0,0,1,.874-1.841c-3.059-.348-6.274-1.529-6.274-6.8a5.329,5.329,0,0,1,1.419-3.7,4.947,4.947,0,0,1,.133-3.644s1.157-.37,3.788,1.412a13.056,13.056,0,0,1,6.9,0C19.847,11.661,21,12.031,21,12.031a4.943,4.943,0,0,1,.135,3.644,5.32,5.32,0,0,1,1.417,3.7c0,5.289-3.221,6.453-6.287,6.794a3.291,3.291,0,0,1,.934,2.55c0,1.842-.016,3.325-.016,3.779,0,.367.248.8.946.661A13.772,13.772,0,0,0,13.77,6.321Z" transform="translate(0 -6.321)" fill="#fffeeb"/></svg>