<svg xmlns="http://www.w3.org/2000/svg" width="28.093" height="26.086" viewBox="0 0 28.093 26.086"><path d="M192,192h5.553v2.846h.079A6.158,6.158,0,0,1,203.114,192c5.861,0,6.945,3.649,6.945,8.394v9.665h-5.788v-8.568c0-2.044-.042-4.673-3.011-4.673-3.015,0-3.475,2.226-3.475,4.524v8.717H192Z" transform="translate(-181.967 -183.973)" fill="#fffeeb"/><path d="M32,192h6.02v18.06H32Z" transform="translate(-32 -183.973)" fill="#fffeeb"/><path d="M38.02,67.01A3.01,3.01,0,1,1,35.01,64,3.01,3.01,0,0,1,38.02,67.01Z" transform="translate(-32 -64)" fill="#fffeeb"/></svg>