<svg xmlns="http://www.w3.org/2000/svg" xmlns:xlink="http://www.w3.org/1999/xlink" width="507" height="761" viewBox="0 0 507 761"><defs><linearGradient id="a" x1="0.687" y1="0.682" x2="-0.996" y2="-0.262" gradientUnits="objectBoundingBox"><stop offset="0" stop-color="#020c1c"/><stop offset="1" stop-color="#051833"/></linearGradient><clipPath id="e"><rect width="507" height="761"/></clipPath></defs><g id="d" clip-path="url(#e)"><path d="M-8296.06-12280.086c-3.6-.126-7.132-2.754-6.656-7.5,6.858-68.338,11.633-130.95,14.75-188.272a171.878,171.878,0,0,1-57.781-107.772,3.482,3.482,0,0,1,5.247-3.6c29.354,16.919,44.2,46.735,54.191,77.923q1.367-30.516,2.113-58.977a6.848,6.848,0,0,1-3.269-1.779c-25.795-25.118-47.945-57.94-57.814-85.653-3.038-8.549,9.886-13.169,12.934-4.6,8.456,23.748,26.746,51.68,48.565,74.479.053-2.579.1-5.157.148-7.71a6.558,6.558,0,0,1-3.618-4.3c-12.462-40.929-36.111-70.745-62.659-112.888-4.834-7.685,6.772-15,11.617-7.317,21.416,34,41.271,60.406,55.073,91.752q.089-13.239.053-25.99a4.165,4.165,0,0,1-.02-5.095q-.089-19.346-.452-37.593c-13.291-2.407-36.758-13.991-60.869-43.2a176.069,176.069,0,0,1-34.961-69.53c-.628-2.525,2.371-4.751,4.646-3.747a177.937,177.937,0,0,1,90.563,91.554q-.565-18.822-1.391-36.392c-19.131-36.443-39.888-46.479-73.587-91.939-5.4-7.291,5.613-15.474,11.031-8.173,25.66,34.625,44.465,48.906,61.034,71.656q-1.917-31.778-4.5-59.224a171.8,171.8,0,0,1-74.423-91.036,3.476,3.476,0,0,1,4.392-4.593c30.461,9.929,50.612,33.815,66.419,60.446q-2.224-19.585-4.6-36.745c-13.165-13.148-24.847-28.281-38.181-40.237-6.772-6.065,2.4-16.278,9.156-10.227,8.388,7.513,15.893,15.9,23.16,24.016q1.2,1.342,2.421,2.694-1.947-12.715-3.857-23.952c-30.331-13.268-59.884-33.437-68.076-67.417a3.444,3.444,0,0,1,3.754-3.962c25.211,4.722,44.085,20.845,58.852,40.5-1.717-9.324-3.292-17.648-4.636-25.022a6.831,6.831,0,0,1-5.283-1.1c-17.742-12.355-38.874-18.243-56.325-35.711a6.7,6.7,0,0,1-2.1-4.553v-.39c.165-5.224,6.944-9.639,11.817-4.765,10.643,10.652,25.587,17.916,37.573,24-14.394-20.039-27.664-41.334-31.692-66.036-.4-2.453.8-3.668,3.071-3.748h.5c10.146.334,38.475,20.568,45.465,53a6.471,6.471,0,0,1,6.1,6.469c.406,8.489,2.543,20.667,5.6,37.038,5.028-63.266,29.893-94.439,32.977-81.2,10.5,45.086-6.892,89.511-24.009,130.584q2.174,12.847,4.438,27.7c30.279-70.371,18.211-94.869,32.469-92.842a6.854,6.854,0,0,1,5.828,7.76c-5.307,37.24-16.184,71.934-34.226,109.18a6.769,6.769,0,0,1-.512.889q2.517,18.776,4.884,40.387a141.916,141.916,0,0,1,24.412-64.475c2.958-4.246,8.238-14.209,14.7-12.617,6.762,1.661,4.563,12.736,4.272,17.673a162.8,162.8,0,0,1-38.161,95.1,3.507,3.507,0,0,1-1.645,1.109c.865,9.981,1.685,20.4,2.438,31.184a297.631,297.631,0,0,0,29.314-61.076c3.672-10.537,9.952-28.6,19.108-22.407a6.869,6.869,0,0,1,1.843,9.536c-3.973,5.86-5.488,10.2-7.994,17.388-4.527,12.983-11.365,32.6-38.95,78.508a6.869,6.869,0,0,1-1.793,1.981q.59,10.286,1.106,21.03.9,1.783,1.8,3.642a194.3,194.3,0,0,1,41.932-71.088c2.183-2.354,6.559-1.258,6.172,2.4a244.581,244.581,0,0,1-47.928,121.335q.341,14.843.512,30.444c23.13-31.687,34.228-74.826,40.519-80.535a6.864,6.864,0,0,1,9.694.452,6.866,6.866,0,0,1-.076,9.318c-4.27,6.666-20.535,60.854-50,92.049q.069,26.256-.4,54.571c23.309-31.715,34.466-75.159,40.779-80.892,6.484-5.894,15.592,3.424,9.618,9.774-4.309,6.729-20.846,61.9-50.847,92.937q-.728,30.426-2.153,63.26a141.475,141.475,0,0,1,34.592-51c3.774-3.543,11-12.2,17-9.312,6.273,3.021,1.843,13.4.541,18.168a162.852,162.852,0,0,1-54.146,82.933c-3.127,56.556-7.858,118.171-14.588,185.24a6.487,6.487,0,0,1-6.476,6.129Zm171.175,0c-3.847-.056-7.71-3.027-6.8-8.05,6.832-37.652,13.188-85.062,18.844-136.292-17.821-4.521-27.195-21.81-34.344-37.336-18.593-40.4-27.614-63.437-17.613-102.269,5.795-22.522,7.063-30.243-.512-52.713-5.455-16.163-12.438-33.445-6.763-50.56a2.313,2.313,0,0,1,3.824-1.007c49.395,49.866,42.78,78.141,37.009,147.591-4.778,57.465,11.137,78.6,19.343,87.675,10.4-96.289,18.319-204.663,22.252-286.539-8.651.377-17.754-.188-34.39,1.341-2.018.185-6.548.423-13.033.333a21.648,21.648,0,0,1-1.1,2.48,26.95,26.95,0,0,1-18.749,13.555c-15.866,2.631-28.427-12.631-24.56-26.387a22.678,22.678,0,0,1,14.846-15.192c15.11-7.727,29.454,3.345,30.718,16.691,10.864.053,14.03-1.8,39.63-1.8q2.987,0,5.742-.133c-20.149-13.759-33.248-27.631-40.944-37.3a22.466,22.466,0,0,1-8.658,2.536c-15.206,1.344-26.4-12.9-24.2-27.416,2.282-15.021,19.5-25.62,33.941-20.647,15.123,5.214,17.89,26.95,6.971,37.629a19.346,19.346,0,0,1-1.129,1.81,176.986,176.986,0,0,0,35.78,33.439c2-47.063,2.479-83.2,1.109-99.69q-.322-3.833-.581-7.706c-.928.475-1.9.918-2.893,1.311q-1.422.56-2.879.987a21.582,21.582,0,0,1-9.8,8.367c-10.189,4.3-25.524,1.1-28.1-11.193a24.168,24.168,0,0,1,13.987-27.063,18.3,18.3,0,0,1,7.274-1.528c-3.51-5.013-6.736-9.949-9.586-14.09a20.291,20.291,0,0,1-2.651.185,21.339,21.339,0,0,1-10.583.086c-22.232-5.643-17.777-38.514,4.623-42.879,22.949-4.472,36.556,22.661,20.073,37.282a22.314,22.314,0,0,1-2.648,2.021c6.525,9.553,14.486,21.879,22.3,29.421-2.4-63.461,4.484-129.4,2.883-140.522a7.073,7.073,0,0,1,.393-3.721c-10.1-7.076-18.871-16.7-28.776-29.15-4.8,4.541-11.451,6.473-17.4,4.594-22.252-1.1-18.151-35.949,1.466-39.657,12.363-2.338,23.279,16.335,22.338,22.648a22.09,22.09,0,0,1-1.106,4.352,234.98,234.98,0,0,0,15.447,18.125c-5.974-16.784-8.477-35.024-10.458-53.155a25.3,25.3,0,0,1-10.157-1.912,19.558,19.558,0,0,1-6.954-3.133c-15.083-10.8-14.855-38.145-.172-44.91,14.41-6.641,41.258,7.855,39.752,27.476-.627,8.225-5.458,16.229-12.864,20.069-.208.108-.416.211-.624.311,2.562,23.691,5.934,47.558,16.853,67.3,11.065-20.614,24.722-61.018,24.461-93.987a20.1,20.1,0,0,1-3.989-.74c-18.629-.815-21.149-23.345-10.652-38.673,4.339-6.34,10.22-9.093,16.061-9.176h.539a22.3,22.3,0,0,1,20.865,27.607,22.952,22.952,0,0,1-13.7,19.535c.564,29.549-9.424,64.227-19.713,87.727,8.1-5.211,16.107-9.949,23.121-16.395-4.933-7.832-4.663-18.92,5.412-27.231,4.9-7.053,14.129-9.836,21.172-7.3,16.7,6.029,18.339,34.964-1.8,42.668a20.1,20.1,0,0,1-18.329-1.645c-11.8,10.942-25.63,17.038-37.557,26.742.684,5.333.168,16.447-.865,36.917-1.417,27.987-3.434,67.961-1.859,106.584,16.946-11.712,27.238-24.619,31.966-40.442a17.938,17.938,0,0,1-7.75-11.845c-3.913-10.514,3.047-25.683,11.646-29.777,18.052-8.6,39.587,22.514,20.729,39.627a20.036,20.036,0,0,1-16.077,5.273c-5.382,17.368-16.761,31.739-34.968,44.441,26.224,2.133,41.43-3.78,51.032-10.87a25.741,25.741,0,0,1,.307-17.339c3.411-8.767,10.834-13.766,19.042-13.6,16.054-3.064,27.9,12.393,23.563,26.416-3.652,11.8-16.916,23.3-29.764,18.587a20.81,20.81,0,0,1-8.674-6.072c-16.718,11.457-37.269,14.079-60.175,11.633q.218,3.16.479,6.283c1.466,17.56.852,57.1-1.439,108.381a86.018,86.018,0,0,0,26.02-15.747q-.733-.48-1.43-1.03c-14.225-11.21-9.417-33.076,7.419-36.385,17.937-8.42,36.477,11.752,26.465,29.791-4.56,8.212-13.984,12.19-22.85,11.114a105.885,105.885,0,0,1-28.153,19.316c8.057,4.626,17.527,6.67,30.121,6.67,17.547,0,25.363-2.143,32.458-6.653-6.657-13.872,3.4-30.382,17.907-32.148,22.929-2.783,29.176,30.808,19.789,40.176-9.5,9.486-25.864,9.295-33.68.251-7.908,4.8-17.392,7.524-36.474,7.524-16.163,0-27.955-3.051-38.187-10.064-1.793,37.19-4.392,79.69-7.664,124.022,4.917-18.6,9.585-32.326,18.346-43.973,9.751-12.963,24.095-20.646,38.22-27.928a2.309,2.309,0,0,1,3.223,2.335c-4.527,41.37-33.9,72.712-62.18,100.785-4.3,54.07-9.523,109.576-15.43,160.371,10.864-27.559,30.458-50.946,41.552-78.469,9.546-23.672,6.26-36.708,12.131-54.143a53.231,53.231,0,0,1,34.076-33.465c1.71-.549,3.982,1.4,2.807,3.173-19.495,29.467-10.629,67.122-20.733,99.967-8.978,29.177-30.626,52.476-46.99,76.97-9.015,13.491-16.734,27.792-24.362,42.1a1.846,1.846,0,0,1,.205,1.436,19.57,19.57,0,0,1-7.109,9.761l-.3.3c-2.559,17.748-5.21,34.32-7.935,49.341a6.458,6.458,0,0,1-6.485,5.6Z" transform="matrix(0.966, -0.259, 0.259, 0.966, 11482.459, 10659.17)" stroke="rgba(0,0,0,0)" stroke-miterlimit="10" stroke-width="1" fill="url(#a)"/></g></svg>